<?xml version="1.0" standalone="no"?>
<!DOCTYPE svg PUBLIC "-//W3C//DTD SVG 20010904//EN"
 "http://www.w3.org/TR/2001/REC-SVG-20010904/DTD/svg10.dtd">
<svg version="1.0" xmlns="http://www.w3.org/2000/svg"
 width="456.000000pt" height="460.000000pt" viewBox="0 0 456.000000 460.000000"
 preserveAspectRatio="xMidYMid meet">

<g transform="translate(0.000000,460.000000) scale(0.100000,-0.100000)"
fill="#000000" stroke="none">
<path d="M2269 4556 c-3 -3 -50 -8 -104 -10 -112 -6 -188 -13 -225 -21 -14 -3
-57 -12 -95 -20 -39 -8 -83 -19 -99 -25 -16 -6 -49 -15 -75 -21 -122 -27 -521
-213 -544 -254 -4 -8 -12 -15 -17 -15 -14 0 -125 -74 -173 -114 -23 -20 -67
-56 -97 -81 -65 -52 -172 -156 -216 -211 -18 -21 -48 -56 -68 -77 -19 -21 -51
-61 -70 -90 -19 -29 -44 -62 -56 -74 -11 -13 -29 -43 -40 -68 -11 -25 -33 -65
-48 -88 -42 -61 -149 -276 -157 -315 -4 -18 -20 -62 -36 -97 -16 -36 -29 -76
-29 -89 0 -14 -4 -36 -10 -51 -16 -42 -61 -324 -65 -405 -5 -92 -7 -212 -5
-225 1 -5 1 -33 0 -60 -1 -28 3 -62 9 -76 5 -15 6 -30 2 -35 -11 -12 26 -211
59 -324 8 -25 13 -49 11 -54 -2 -10 26 -104 40 -128 5 -10 9 -23 9 -28 0 -16
85 -210 127 -288 19 -37 56 -98 81 -137 25 -38 57 -88 71 -110 14 -22 30 -42
34 -44 4 -1 19 -20 32 -41 23 -37 97 -121 178 -203 20 -21 37 -42 37 -47 0 -5
9 -11 19 -15 11 -3 22 -12 25 -20 3 -8 9 -15 14 -15 4 0 39 -29 77 -65 38 -36
73 -65 77 -65 5 0 27 -14 50 -30 22 -17 44 -30 49 -30 4 0 23 -14 42 -31 37
-33 61 -48 112 -72 17 -8 36 -21 44 -30 7 -10 18 -17 24 -17 5 0 34 -11 64
-25 124 -58 162 -74 233 -95 41 -12 85 -26 98 -31 13 -5 33 -9 45 -9 13 0 27
-4 33 -9 5 -6 25 -12 44 -14 19 -3 56 -10 82 -16 25 -6 70 -13 100 -17 29 -3
69 -10 89 -15 65 -16 429 -7 599 15 99 14 301 67 326 87 6 5 19 10 30 12 10 2
28 7 39 12 11 4 45 16 75 27 30 11 64 25 75 31 11 6 49 27 85 45 36 19 71 39
79 45 16 14 43 29 98 57 23 12 47 28 54 36 6 8 17 14 24 14 6 0 20 9 30 20 10
11 24 20 32 20 7 0 35 21 62 48 26 26 65 61 86 77 51 40 134 114 162 145 46
51 73 85 73 93 0 4 7 7 15 7 8 0 15 3 15 8 0 4 25 34 55 67 30 33 55 63 55 67
0 8 48 80 58 88 12 9 52 68 62 92 5 13 26 50 45 83 19 33 38 67 41 75 3 8 21
47 40 85 19 39 34 76 34 83 0 7 4 20 9 30 15 28 50 124 60 167 12 50 26 100
40 145 46 143 61 621 27 830 -21 135 -51 257 -83 345 -54 150 -85 231 -99 262
-8 17 -14 34 -14 37 0 4 -16 32 -35 62 -19 30 -35 57 -35 61 0 18 -161 260
-232 350 -92 115 -317 333 -368 357 -11 5 -20 13 -20 18 0 4 -5 8 -11 8 -7 0
-30 15 -53 33 -47 38 -183 119 -271 161 -33 16 -85 41 -115 57 -30 15 -80 34
-110 42 -30 8 -77 24 -105 35 -27 11 -75 25 -105 31 -30 7 -75 16 -100 22 -98
21 -215 38 -306 44 -44 3 -106 8 -139 11 -33 3 -63 3 -66 0z m341 -80 c14 -4
50 -10 80 -12 30 -3 96 -17 145 -31 189 -53 184 -51 290 -93 149 -60 364 -180
479 -269 34 -26 73 -54 88 -64 75 -47 328 -321 404 -436 80 -122 128 -202 155
-259 16 -35 37 -76 47 -90 10 -15 30 -58 43 -97 124 -343 151 -487 155 -825 1
-124 -1 -247 -6 -275 -4 -27 -11 -75 -14 -105 -4 -30 -18 -97 -32 -150 -14
-52 -30 -111 -34 -130 -14 -55 -49 -152 -65 -177 -8 -12 -15 -28 -15 -34 0
-16 -85 -191 -129 -264 -76 -129 -257 -357 -340 -430 -19 -16 -59 -55 -90 -86
-31 -31 -74 -67 -96 -81 -22 -14 -58 -44 -80 -67 -22 -22 -44 -41 -49 -41 -5
0 -43 -23 -85 -52 -204 -138 -503 -261 -739 -303 -48 -9 -107 -20 -132 -25
-113 -24 -372 -28 -535 -10 -151 18 -406 71 -430 90 -5 4 -41 17 -80 29 -117
37 -421 197 -485 255 -14 12 -56 45 -95 71 -63 45 -355 328 -355 345 0 4 -27
40 -60 79 -33 40 -69 90 -81 113 -11 22 -34 59 -50 81 -16 22 -29 44 -29 48 0
4 -13 31 -29 58 -17 27 -36 69 -45 93 -8 24 -23 61 -34 83 -36 72 -59 129 -67
165 -4 19 -11 40 -15 45 -10 14 -47 182 -65 298 -15 97 -24 452 -11 464 3 3 1
12 -4 19 -11 12 -6 66 20 229 18 113 62 285 90 350 11 25 20 47 20 50 2 18 22
62 106 230 86 175 190 337 294 460 40 48 234 238 265 260 16 11 51 38 79 61
54 43 230 164 239 164 3 0 33 16 67 35 53 30 105 54 225 105 102 42 316 101
419 115 60 7 111 17 115 20 8 9 518 0 551 -9z"/>
<path d="M2386 4378 c-8 -13 -20 -43 -26 -67 -6 -24 -16 -51 -21 -60 -19 -34
-70 -205 -65 -218 10 -25 50 -10 66 24 14 30 19 33 61 33 50 0 62 -9 73 -52 5
-23 12 -28 36 -28 17 0 30 3 30 8 0 8 -33 177 -55 282 -9 41 -21 80 -27 87
-17 21 -56 15 -72 -9z m54 -185 c0 -28 -4 -33 -24 -33 -32 0 -37 17 -18 64 14
36 16 37 29 20 7 -10 13 -33 13 -51z"/>
<path d="M2180 4341 c0 -27 5 -62 10 -76 9 -23 13 -25 25 -15 16 13 19 56 9
109 -5 21 -12 31 -25 31 -16 0 -19 -8 -19 -49z"/>
<path d="M1931 4368 c-55 -8 -85 -24 -76 -39 3 -4 7 -25 9 -46 8 -73 47 -288
54 -295 6 -5 31 -2 140 18 94 18 113 234 29 327 -36 41 -70 48 -156 35z m99
-78 c25 -13 40 -62 40 -131 0 -46 -5 -64 -20 -79 -20 -20 -74 -27 -84 -11 -3
5 -11 44 -16 87 -6 44 -13 89 -15 102 -4 17 0 25 17 32 31 12 56 12 78 0z"/>
<path d="M2659 4330 c-81 -66 -100 -257 -34 -330 25 -27 95 -36 133 -16 33 17
72 61 72 82 0 8 -12 17 -26 20 -20 5 -31 1 -50 -20 -31 -33 -64 -33 -88 0 -15
22 -17 36 -12 83 8 67 34 125 59 129 38 7 67 -8 81 -43 12 -27 21 -35 40 -35
23 0 26 4 26 34 0 39 -35 95 -70 113 -44 22 -92 16 -131 -17z"/>
<path d="M2953 4228 c-54 -56 -83 -127 -83 -201 0 -98 34 -144 110 -148 31 -2
80 17 80 31 0 5 6 10 13 10 8 0 20 12 27 26 12 22 12 27 0 34 -24 16 -54 11
-73 -10 -23 -27 -63 -26 -81 3 -32 50 25 199 81 213 32 8 73 -29 73 -67 0 -21
6 -28 28 -32 15 -3 28 -4 30 -2 12 11 10 67 -3 98 -20 48 -67 77 -126 77 -38
0 -50 -5 -76 -32z"/>
<path d="M1483 4233 c-20 -8 -16 -28 28 -118 47 -99 47 -125 0 -77 -18 17 -36
32 -40 32 -4 0 -27 20 -51 45 -46 47 -73 55 -105 31 -18 -13 -17 -17 19 -92
21 -44 56 -118 79 -166 41 -89 60 -105 86 -74 9 10 1 35 -34 110 -25 53 -45
99 -45 101 0 14 24 -3 100 -70 85 -75 110 -87 144 -62 16 12 16 16 -4 67 -12
30 -35 76 -51 101 -16 25 -29 51 -29 57 0 6 -12 36 -27 67 -26 52 -39 61 -70
48z"/>
<path d="M3278 4107 c-7 -7 -25 -20 -41 -30 -58 -37 -112 -164 -98 -229 15
-67 44 -93 113 -102 51 -8 85 7 130 57 38 43 78 131 78 172 0 38 -12 85 -20
80 -4 -3 -11 6 -14 19 -10 39 -116 63 -148 33z m94 -84 c21 -18 24 -73 7 -106
-22 -41 -72 -99 -93 -107 -28 -10 -61 6 -75 37 -16 34 -14 48 14 102 41 82
103 114 147 74z"/>
<path d="M1180 4054 c-19 -14 -59 -39 -87 -56 -29 -16 -53 -35 -53 -41 0 -7
31 -55 68 -108 37 -53 79 -117 94 -143 16 -26 34 -49 42 -52 14 -6 56 20 105
63 14 12 38 27 53 34 33 14 35 28 8 57 l-20 21 -57 -39 c-31 -22 -61 -40 -68
-40 -6 0 -19 14 -29 32 l-19 31 26 21 c14 12 37 29 51 39 30 20 32 35 12 63
-16 21 -13 22 -86 -30 -39 -28 -41 -28 -60 -11 -11 10 -20 23 -20 30 0 6 27
31 60 55 l59 43 -15 28 c-18 35 -20 35 -64 3z"/>
<path d="M3542 3918 c-22 -29 -54 -68 -71 -86 -49 -52 -121 -143 -121 -152 0
-5 10 -16 21 -24 21 -14 25 -11 86 62 35 42 68 79 73 80 15 5 12 -15 -4 -31
-19 -19 -86 -145 -86 -161 0 -7 8 -20 19 -30 17 -16 21 -14 77 29 32 25 61 50
62 56 5 12 22 12 22 -1 0 -13 -34 -61 -73 -103 l-29 -31 24 -18 c13 -9 26 -17
29 -15 3 1 46 49 94 107 49 58 99 116 112 129 29 30 26 58 -9 84 l-28 21 -35
-26 c-51 -36 -104 -79 -137 -110 -15 -14 -28 -23 -28 -18 0 5 27 57 60 116
l60 108 -32 33 c-18 18 -35 33 -39 33 -4 0 -25 -24 -47 -52z"/>
<path d="M2060 3919 c-35 -9 -67 -16 -71 -13 -12 7 -173 -37 -229 -63 -30 -14
-64 -29 -75 -33 -107 -43 -269 -139 -395 -235 -97 -74 -262 -246 -324 -338
-12 -18 -48 -70 -80 -116 -32 -46 -71 -112 -87 -147 -27 -59 -93 -250 -104
-301 -3 -13 -7 -35 -11 -50 -3 -15 -8 -31 -11 -37 -4 -5 -7 -21 -9 -35 -1 -14
-7 -57 -13 -96 -20 -131 -20 -217 0 -378 31 -240 124 -502 240 -674 27 -40 49
-75 49 -78 0 -29 196 -248 308 -345 23 -19 49 -42 59 -51 62 -56 324 -197 428
-229 22 -7 56 -18 75 -25 50 -19 159 -46 200 -50 19 -2 71 -8 115 -14 44 -6
109 -11 145 -11 36 0 72 -1 80 -1 15 0 78 7 135 16 17 3 60 9 96 15 37 5 79
14 93 20 15 5 38 10 52 10 13 0 32 4 42 9 9 5 71 31 137 57 107 42 145 61 257
127 17 10 37 24 45 32 8 8 21 15 29 15 8 0 14 4 14 10 0 5 13 16 30 25 30 16
230 212 230 226 0 4 9 10 19 14 11 3 29 20 40 38 45 70 94 142 101 147 4 3 18
25 32 50 14 25 35 63 48 85 12 22 26 44 31 50 5 5 9 18 9 29 0 11 7 27 15 35
38 43 113 280 139 442 13 76 15 376 3 434 -2 11 -7 45 -12 75 -16 113 -78 310
-137 435 -37 79 -132 236 -179 296 -53 67 -247 261 -285 285 -16 10 -47 32
-69 50 -34 27 -118 80 -190 122 -59 33 -259 110 -349 133 -171 45 -284 59
-446 58 -113 -2 -172 -7 -220 -20z m500 -50 c58 -11 123 -23 145 -28 35 -7
176 -56 230 -80 11 -5 36 -16 57 -25 20 -9 41 -16 46 -16 6 0 12 -3 14 -7 2
-5 23 -19 48 -32 48 -26 150 -96 189 -130 13 -12 27 -21 31 -21 13 0 240 -238
240 -252 0 -4 6 -13 13 -20 7 -7 24 -29 37 -48 13 -19 27 -37 30 -40 23 -21
145 -267 173 -350 102 -298 116 -590 43 -920 -21 -92 -53 -185 -88 -255 -80
-157 -121 -232 -137 -250 -10 -11 -34 -45 -54 -76 -63 -98 -311 -338 -413
-402 -77 -48 -275 -147 -294 -147 -10 0 -20 -4 -22 -9 -4 -10 -208 -74 -215
-67 -3 2 -26 -2 -51 -10 -82 -25 -286 -37 -403 -24 -144 16 -205 26 -269 43
-30 9 -87 24 -127 35 -39 11 -85 29 -101 41 -17 11 -36 21 -42 21 -24 0 -193
91 -244 131 -28 21 -58 45 -67 52 -58 43 -227 210 -255 252 -19 28 -50 70 -69
95 -18 25 -34 50 -34 57 -1 6 -12 25 -26 41 -14 17 -25 33 -25 37 0 5 -17 38
-39 75 -21 37 -46 92 -56 121 -9 30 -20 63 -25 74 -15 37 -39 110 -49 150 -14
57 -42 278 -46 360 -3 78 28 343 43 372 6 10 15 45 21 78 6 33 16 62 21 63 6
2 10 12 10 23 0 50 117 314 147 332 7 4 13 14 13 22 0 8 10 24 23 37 25 26 60
78 52 78 -3 0 28 34 67 76 40 41 76 81 80 88 9 17 158 141 216 181 85 59 172
110 244 143 25 12 49 26 53 32 3 5 17 10 31 10 13 0 41 9 61 20 21 11 47 20
59 20 12 0 41 9 65 19 24 11 70 22 102 25 31 3 63 8 69 12 40 25 324 21 478
-7z"/>
<path d="M2841 3608 c-23 -29 -54 -67 -69 -84 -49 -56 -65 -77 -92 -128 -46
-86 -101 -181 -111 -190 -5 -6 -9 -20 -9 -31 0 -12 -11 -32 -25 -45 -14 -13
-25 -28 -25 -34 0 -5 -12 -22 -26 -37 -32 -34 -25 -51 14 -37 37 14 86 -6 104
-42 7 -13 23 -34 36 -46 38 -36 72 -94 72 -122 0 -17 15 -43 39 -71 21 -25 37
-50 34 -57 -2 -7 0 -15 6 -19 6 -3 11 -17 11 -31 0 -13 6 -24 13 -24 7 0 19
-20 26 -44 7 -25 21 -60 30 -78 25 -46 34 -118 15 -118 -8 0 -14 8 -14 18 0 9
-9 23 -21 30 -12 8 -18 19 -15 28 3 9 -1 22 -9 30 -8 8 -12 21 -9 29 4 8 -1
18 -10 21 -9 3 -16 14 -16 25 0 10 -10 25 -22 33 -12 8 -22 24 -23 34 -2 31
-77 113 -100 110 -14 -2 -19 -9 -17 -26 2 -13 -3 -25 -12 -28 -24 -9 -19 -33
8 -45 14 -7 22 -17 19 -25 -3 -8 0 -14 7 -14 6 0 10 -8 9 -17 -1 -10 2 -26 6
-37 5 -11 3 -21 -4 -26 -7 -4 -12 -18 -11 -31 1 -13 2 -27 1 -32 -2 -14 -54
27 -127 100 -70 70 -71 72 -54 91 25 27 21 72 -6 72 -11 0 -25 -5 -30 -10 -7
-7 -15 -2 -24 15 -16 30 -46 28 -93 -6 -15 -11 -31 -18 -36 -15 -5 3 -16 -3
-26 -14 -10 -11 -30 -20 -43 -20 -24 0 -25 -1 -7 -13 17 -13 17 -15 -3 -35
-12 -12 -22 -26 -22 -31 0 -5 -10 -15 -22 -23 l-22 -14 24 -24 c15 -15 23 -36
24 -59 1 -35 2 -36 41 -36 22 0 46 -4 54 -9 10 -7 12 -3 6 15 -7 23 -18 34
-40 42 -5 3 -6 8 -2 13 4 5 11 3 15 -3 4 -6 23 -14 42 -18 72 -14 110 -29 110
-41 0 -13 -37 -13 -58 0 -10 6 -11 1 -7 -21 11 -46 14 -53 25 -53 5 0 9 6 7
13 -1 6 5 12 13 12 8 0 20 3 25 7 6 3 27 9 47 13 21 4 42 13 49 21 18 22 36
17 47 -13 23 -59 21 -64 -37 -79 -37 -10 -58 -11 -65 -4 -14 14 -26 12 -26 -5
0 -9 -10 -15 -26 -15 -21 0 -25 -4 -22 -22 2 -16 10 -23 26 -23 12 0 26 -5 30
-11 4 -6 24 -14 45 -17 31 -5 38 -3 33 8 -3 10 1 15 13 15 10 0 23 11 29 25 6
14 18 25 27 25 8 0 15 6 15 14 0 8 11 23 25 34 13 11 21 23 17 27 -4 5 -2 6 3
3 6 -3 29 -11 53 -17 23 -7 41 -15 38 -19 -2 -4 2 -15 9 -25 13 -19 32 -6 20
13 -10 17 15 11 41 -9 15 -12 33 -17 46 -13 14 3 19 1 14 -6 -3 -6 -2 -13 3
-16 5 -3 7 -15 4 -26 -4 -16 -9 -18 -19 -9 -22 18 -38 0 -18 -22 18 -19 50
-27 39 -9 -12 20 12 10 34 -14 35 -37 46 -25 45 52 -2 54 2 71 17 87 70 73 79
89 59 113 -7 9 -7 9 2 2 26 -21 33 -9 35 60 2 76 10 113 23 105 5 -3 15 1 23
9 8 8 27 23 43 33 27 17 29 23 32 93 2 41 4 84 5 95 1 23 -9 87 -20 130 -5 17
-6 71 -3 120 9 152 -4 243 -44 325 -20 40 -36 80 -36 91 0 10 -5 21 -10 24 -6
4 -18 24 -26 45 -15 37 -19 40 -84 54 -38 9 -73 16 -79 16 -5 0 -28 -24 -50
-52z m119 -71 c0 -11 24 -35 87 -87 7 -6 21 -10 33 -10 15 0 20 -6 20 -29 0
-16 6 -31 14 -34 33 -13 24 -81 -18 -122 -17 -18 -17 -19 4 -35 34 -25 17 -39
-46 -37 -50 1 -57 4 -66 27 -24 63 -91 92 -154 65 -21 -8 -45 -13 -55 -10 -10
4 -26 2 -35 -3 -22 -12 -54 -4 -54 14 0 8 9 31 20 51 11 21 20 42 20 48 0 11
90 105 142 147 35 29 88 38 88 15z m-240 -316 c0 -6 -4 -13 -10 -16 -5 -3 -10
1 -10 9 0 9 5 16 10 16 6 0 10 -4 10 -9z m-20 -76 c0 -14 7 -37 16 -50 9 -13
14 -28 11 -32 -3 -4 12 -21 34 -37 34 -26 67 -82 54 -94 -9 -9 -36 8 -44 30
-10 25 -14 19 -25 -34 -10 -45 -24 -32 -18 17 4 40 2 45 -20 54 -14 5 -25 15
-26 23 -5 42 -9 58 -15 64 -11 12 -8 59 5 72 19 19 28 14 28 -13z m423 8 c4
-3 2 -12 -4 -19 -8 -9 -6 -23 6 -48 14 -29 15 -41 5 -71 -6 -19 -17 -35 -24
-35 -13 0 -49 -35 -60 -60 -4 -8 -13 -26 -21 -40 -8 -14 -12 -32 -10 -40 3 -8
-4 -21 -16 -28 -19 -12 -20 -11 -13 25 3 21 13 45 21 54 7 9 11 23 7 32 -4 11
8 30 35 56 43 42 51 57 26 47 -8 -3 -15 -1 -15 4 0 6 9 10 20 10 11 0 20 5 20
10 0 6 -5 10 -11 10 -10 0 -7 31 7 83 6 18 16 22 27 10z m-93 -43 c0 -5 -2
-10 -4 -10 -3 0 -8 5 -11 10 -3 6 -1 10 4 10 6 0 11 -4 11 -10z m-132 -50 c34
0 0 -13 -38 -14 -28 -1 -40 3 -40 13 0 10 8 12 31 7 17 -3 38 -6 47 -6z m117
-47 c-4 -11 -9 -13 -16 -6 -6 6 -6 19 2 39 12 28 13 28 17 6 2 -13 1 -31 -3
-39z m-130 -83 c-3 -5 -17 -10 -31 -10 -14 0 -22 4 -19 10 3 6 17 10 31 10 14
0 22 -4 19 -10z m277 -22 c5 -35 -3 -69 -16 -65 -11 4 -16 51 -8 75 7 20 20
14 24 -10z m-352 -43 c0 -19 1 -38 2 -42 1 -5 -5 -9 -14 -11 -21 -4 -28 30
-12 53 7 10 11 22 8 26 -3 5 0 9 5 9 6 0 11 -16 11 -35z m80 -15 c0 -5 -4 -10
-9 -10 -6 0 -13 5 -16 10 -3 6 1 10 9 10 9 0 16 -4 16 -10z m34 -25 c-4 -8 -7
-15 -9 -15 -2 0 -5 7 -9 15 -3 9 0 15 9 15 9 0 12 -6 9 -15z m144 -61 c27 3
47 -1 67 -14 24 -16 26 -20 12 -25 -9 -4 -22 -5 -29 -2 -7 2 -21 0 -31 -5 -12
-6 -23 -5 -33 2 -11 10 -15 9 -20 -3 -6 -17 -92 -53 -102 -43 -3 4 0 11 7 15
9 6 10 11 2 15 -8 5 -7 13 3 28 20 28 58 47 73 36 6 -5 29 -7 51 -4z m-178
-14 c0 -11 -7 -23 -15 -26 -21 -9 -19 -37 5 -52 11 -7 20 -19 20 -27 0 -8 8
-19 18 -25 16 -11 16 -11 -1 -6 -10 3 -25 6 -33 6 -8 0 -14 7 -14 15 0 8 -9
19 -20 25 -26 14 -25 44 2 80 25 35 38 38 38 10z m-425 -60 c3 -5 1 -10 -4
-10 -6 0 -11 5 -11 10 0 6 2 10 4 10 3 0 8 -4 11 -10z m625 -25 c0 -15 -53
-30 -71 -20 -7 5 -3 15 12 31 17 18 26 21 40 13 11 -5 19 -16 19 -24z m-740
-99 c0 -7 -7 -19 -15 -26 -12 -10 -16 -9 -21 5 -4 10 -1 21 7 26 20 12 29 11
29 -5z m90 -51 c10 -12 9 -15 -6 -15 -30 0 -64 12 -64 21 0 15 57 10 70 -6z
m590 -25 c0 -5 -2 -10 -4 -10 -3 0 -8 5 -11 10 -3 6 -1 10 4 10 6 0 11 -4 11
-10z"/>
<path d="M3057 3233 c-4 -3 -7 -11 -7 -17 0 -6 5 -5 12 2 6 6 9 14 7 17 -3 3
-9 2 -12 -2z"/>
<path d="M1632 3614 c-38 -19 -59 -38 -83 -77 -18 -29 -33 -59 -34 -68 -1 -16
-23 -104 -32 -129 -3 -8 -7 -28 -9 -45 -2 -16 -9 -40 -15 -51 -11 -21 -8 -111
7 -227 4 -31 2 -53 -5 -60 -6 -6 -11 -19 -11 -29 0 -10 -4 -18 -9 -18 -5 0
-13 -14 -16 -32 -7 -28 -3 -35 26 -60 l34 -29 -32 6 -33 7 0 -47 c0 -34 4 -47
17 -52 10 -4 19 -1 21 7 8 22 49 55 71 57 24 2 39 -16 21 -27 -9 -6 -9 -12 -1
-29 10 -17 9 -21 -4 -21 -17 0 -20 -16 -5 -25 17 -10 11 -25 -10 -25 -11 0
-20 -4 -20 -10 0 -5 -11 -10 -25 -10 -26 0 -33 -14 -14 -26 11 -6 7 -71 -6
-106 -4 -9 4 -27 19 -44 20 -23 25 -25 26 -11 0 9 5 17 11 17 7 0 9 -10 5 -25
-4 -14 -2 -25 4 -25 5 0 10 -13 10 -30 0 -24 4 -30 23 -30 29 0 49 -13 45 -30
-4 -18 47 -43 72 -35 11 4 18 10 15 15 -6 10 24 42 34 35 5 -2 17 4 27 13 10
10 34 24 52 31 17 7 32 17 32 22 0 5 7 9 15 9 8 0 15 6 15 14 0 11 -8 10 -40
-5 -46 -23 -50 -23 -50 -6 0 7 15 24 33 37 17 13 36 30 40 37 4 7 23 19 41 27
23 10 35 22 39 42 4 18 17 35 36 46 38 21 40 45 5 58 -20 8 -24 15 -19 30 9
27 -11 50 -42 50 -18 0 -24 -4 -19 -15 3 -9 0 -15 -9 -15 -8 0 -15 6 -15 14 0
8 -4 17 -9 20 -14 9 -41 -5 -41 -20 0 -8 -7 -17 -15 -20 -8 -3 -17 -15 -21
-26 -4 -13 -12 -18 -24 -15 -11 3 -23 -5 -34 -24 -17 -30 -46 -39 -46 -16 0 7
7 23 16 35 8 12 11 22 7 22 -10 0 -37 -31 -53 -60 -6 -12 -19 -30 -28 -40 -31
-35 -38 -45 -44 -68 -4 -13 -2 -22 5 -22 7 0 4 -5 -6 -11 -22 -13 -36 -4 -20
12 6 6 9 18 6 26 -3 7 3 23 13 34 21 23 45 89 38 101 -3 4 -1 8 4 8 6 0 13 11
16 25 4 14 18 31 31 37 18 8 25 19 25 40 0 15 -4 28 -10 28 -5 0 -10 8 -10 19
0 10 -7 24 -15 31 -9 7 -14 24 -13 39 2 15 -2 26 -9 27 -25 3 -25 4 -13 19 7
8 10 22 6 30 -10 27 22 16 43 -14 18 -25 26 -62 33 -148 2 -18 27 -16 34 2 4
8 14 15 24 15 10 0 23 7 30 15 18 21 29 19 23 -5 -8 -30 34 -27 48 3 6 13 30
32 55 43 24 10 44 25 44 33 0 22 -60 5 -92 -26 -34 -32 -49 -23 -25 15 10 15
25 41 33 57 9 17 31 41 49 54 29 20 41 22 91 15 l57 -7 -24 44 c-13 24 -32 53
-42 65 -10 12 -20 39 -23 60 -3 21 -19 64 -35 95 -16 31 -29 63 -29 71 0 48
-91 219 -147 275 -40 41 -71 42 -141 7z m8 -76 c0 -7 4 -20 10 -28 7 -12 12
-12 34 -1 21 12 30 11 59 -2 35 -17 67 -55 67 -80 0 -8 7 -20 15 -27 8 -7 15
-28 15 -48 0 -21 7 -40 18 -48 16 -12 15 -13 -6 -14 -13 0 -20 -4 -17 -10 3
-5 14 -10 24 -10 15 0 20 -10 24 -52 3 -29 8 -63 12 -74 5 -16 2 -23 -14 -27
-12 -3 -21 0 -21 6 0 19 -33 47 -57 47 -12 0 -23 5 -23 10 0 6 -5 10 -10 10
-6 0 -30 9 -52 20 -51 24 -77 25 -85 3 -14 -35 -34 -49 -64 -45 -16 2 -30 9
-31 16 0 6 -2 17 -2 24 -1 7 -7 17 -15 21 -11 7 -11 14 2 42 36 82 40 98 28
113 -14 17 1 56 22 56 13 0 31 36 43 83 6 27 24 38 24 15z m-30 -418 c0 -5 -4
-10 -9 -10 -6 0 -13 5 -16 10 -3 6 1 10 9 10 9 0 16 -4 16 -10z m-32 -20 c15
-1 14 -3 -2 -15 -19 -14 -19 -15 -1 -15 27 0 54 -28 48 -51 -8 -27 -28 -23
-82 17 -1 1 -5 19 -8 40 -4 32 -3 36 12 30 9 -3 24 -6 33 -6z m137 -10 c-3 -5
-10 -10 -16 -10 -5 0 -9 5 -9 10 0 6 7 10 16 10 8 0 12 -4 9 -10z m140 -119
c-16 -33 -35 -41 -35 -16 0 8 5 15 10 15 6 0 15 12 21 28 6 15 13 22 16 15 2
-6 -3 -25 -12 -42z m-125 -27 c0 -8 -4 -14 -9 -14 -11 0 -22 26 -14 34 9 9 23
-3 23 -20z m-150 -129 c0 -26 -14 -33 -25 -15 -9 14 1 40 15 40 5 0 10 -11 10
-25z m87 -252 c-9 -9 -19 -14 -23 -11 -10 10 6 28 24 28 15 0 15 -1 -1 -17z
m123 -43 c0 -5 -15 -10 -33 -10 -18 0 -37 -4 -43 -10 -6 -6 -10 -3 -10 10 0
17 7 20 43 20 24 0 43 -4 43 -10z m-66 -99 c34 -1 37 -3 26 -16 -12 -14 -64
-41 -113 -58 -16 -6 -17 -2 -11 31 9 48 9 49 36 46 13 -1 40 -3 62 -3z"/>
<path d="M1700 3459 c0 -17 27 -45 35 -37 3 3 -3 16 -14 29 -16 19 -20 20 -21
8z"/>
<path d="M1790 3390 c0 -5 5 -10 10 -10 6 0 10 5 10 10 0 6 -4 10 -10 10 -5 0
-10 -4 -10 -10z"/>
<path d="M2522 2976 c1 -10 8 -17 13 -17 15 1 12 24 -3 29 -9 3 -13 -2 -10
-12z"/>
<path d="M2076 2918 c-9 -35 -8 -38 19 -48 16 -6 23 -14 19 -25 -8 -19 52 -77
82 -81 13 -1 31 8 43 22 12 14 27 21 36 18 11 -5 13 -2 9 9 -5 14 -1 15 25 7
22 -6 33 -5 42 7 9 10 22 13 43 9 22 -5 35 -1 53 16 20 19 25 20 33 8 5 -8 10
-23 10 -32 0 -21 3 -22 32 -5 47 26 52 36 23 47 -14 5 -33 10 -41 10 -8 0 -23
9 -34 20 -17 17 -32 20 -86 18 -36 -1 -68 -6 -70 -10 -3 -4 -18 -8 -34 -8 -16
0 -31 -4 -34 -9 -3 -5 -27 -7 -53 -5 -36 3 -53 11 -68 29 -26 31 -41 32 -49 3z
m124 -72 c0 -3 -4 -8 -10 -11 -5 -3 -10 -1 -10 4 0 6 5 11 10 11 6 0 10 -2 10
-4z"/>
<path d="M2040 2826 c0 -15 18 -31 26 -23 7 7 -7 37 -17 37 -5 0 -9 -6 -9 -14z"/>
<path d="M2165 2741 c-3 -5 -1 -12 5 -16 5 -3 10 1 10 9 0 18 -6 21 -15 7z"/>
<path d="M1720 2710 c0 -5 5 -10 10 -10 6 0 10 5 10 10 0 6 -4 10 -10 10 -5 0
-10 -4 -10 -10z"/>
<path d="M1919 2328 c-9 -18 -13 -19 -20 -6 -9 16 -64 13 -75 -3 -3 -5 -16 -9
-30 -9 -17 0 -24 -5 -24 -20 0 -24 25 -26 38 -4 10 18 32 11 32 -10 0 -35 26
-35 88 -3 65 34 75 49 43 67 -29 15 -39 13 -52 -12z"/>
<path d="M2132 2289 c-12 -5 -25 -15 -28 -24 -4 -8 -15 -15 -25 -15 -19 0 -19
-1 1 -40 20 -39 19 -90 -1 -90 -5 0 -6 6 -3 13 2 7 -11 31 -31 54 -22 26 -33
47 -29 57 8 21 -29 22 -46 1 -9 -11 -7 -19 10 -37 11 -12 24 -34 27 -48 3 -14
10 -28 16 -31 12 -9 -31 -52 -46 -46 -7 2 -11 11 -9 20 3 19 -57 38 -126 41
-33 2 -49 8 -63 26 -18 23 -20 24 -30 8 -13 -23 -30 -23 -60 1 -23 18 -26 18
-56 2 -61 -31 -79 -72 -90 -196 -2 -33 -9 -64 -14 -70 -6 -6 -9 1 -7 20 1 17
-1 36 -6 43 -10 17 -36 15 -36 -2 0 -8 -8 -28 -17 -45 -15 -26 -16 -33 -4 -40
8 -5 11 -16 7 -26 -4 -12 0 -18 14 -22 15 -4 19 -11 15 -24 -8 -23 30 -79 52
-79 11 0 14 6 9 25 -4 14 -2 25 4 25 5 0 10 -4 10 -10 0 -5 18 -27 40 -49 l40
-40 -31 9 c-40 12 -59 2 -33 -17 16 -12 17 -15 4 -23 -18 -12 -50 -13 -50 -2
0 4 -9 13 -20 20 -15 9 -25 9 -45 0 -20 -9 -25 -18 -25 -49 0 -21 7 -44 15
-53 18 -17 15 -67 -5 -92 -12 -14 -12 -18 3 -29 12 -8 14 -15 8 -20 -20 -12
-11 -42 16 -60 22 -15 24 -20 12 -29 -17 -13 -18 -127 -1 -169 10 -23 8 -34
-9 -67 -23 -44 -34 -116 -19 -125 6 -3 10 -14 10 -24 0 -16 13 -18 143 -21
309 -6 498 -6 502 -1 2 4 45 3 97 0 59 -5 98 -3 106 3 7 6 15 8 19 5 3 -4 12
-2 18 3 9 7 16 6 25 -5 14 -16 50 -21 50 -6 0 5 10 7 23 4 18 -5 20 -3 10 8
-7 7 -13 23 -13 35 0 13 -4 26 -10 29 -14 8 -13 45 1 45 8 0 8 5 -1 15 -10 12
-10 15 3 15 8 0 17 -6 20 -12 4 -10 7 -10 18 -1 10 10 9 16 -6 33 -10 11 -13
20 -7 20 6 0 23 5 39 12 15 6 38 10 51 9 23 -3 30 13 11 24 -11 7 22 45 38 45
17 0 34 40 24 58 -13 24 0 44 19 32 24 -15 30 -12 45 23 11 28 20 34 44 35 29
1 30 -1 24 -31 -3 -18 -12 -39 -19 -47 -7 -9 -11 -26 -7 -38 3 -13 1 -22 -6
-22 -6 0 -11 -8 -12 -17 0 -11 -3 -13 -6 -5 -11 28 -33 9 -50 -45 -9 -32 -21
-61 -26 -64 -4 -3 -5 -13 -2 -21 4 -11 -2 -17 -24 -21 -22 -5 -28 -10 -24 -25
7 -27 -19 -45 -49 -33 -19 7 -27 5 -35 -8 -12 -19 -6 -33 17 -41 8 -3 93 -5
189 -5 144 0 175 3 185 15 6 9 21 15 34 14 17 -1 22 3 17 14 -3 8 -2 24 1 36
7 21 7 21 15 -2 11 -29 53 -32 44 -2 -4 11 -2 20 4 20 6 0 11 -4 11 -10 0 -16
37 -12 44 5 3 8 15 15 26 15 26 0 26 26 0 40 -23 12 -40 6 -40 -16 0 -28 -17
-13 -39 36 -23 51 -36 180 -18 180 5 0 15 6 23 14 7 8 19 17 26 19 9 4 7 11
-9 24 -28 24 -63 92 -63 123 0 14 -5 31 -12 38 -9 9 -8 15 5 24 12 9 18 35 22
88 9 109 11 125 18 137 4 6 4 19 1 28 -4 10 -1 21 6 25 8 5 9 13 4 21 -5 8 -9
28 -9 44 0 29 -2 30 -47 33 -27 2 -48 7 -48 12 0 5 -13 22 -30 38 -16 17 -30
40 -30 51 0 24 -52 55 -79 46 -13 -4 -29 5 -51 27 -28 27 -34 30 -44 17 -13
-18 -97 -41 -120 -34 -9 3 -24 8 -33 12 -10 4 -34 7 -53 8 -29 0 -36 4 -38 23
-2 13 -14 28 -28 34 -13 6 -24 15 -24 20 0 4 -6 8 -14 8 -7 0 -19 7 -26 15 -7
8 -16 15 -20 15 -13 0 -21 -33 -10 -44 5 -5 10 -23 10 -39 0 -15 4 -26 9 -23
4 3 16 -1 26 -8 13 -9 16 -19 10 -32 -5 -10 -9 -23 -10 -29 -1 -13 -28 -7 -37
10 -5 7 -21 11 -40 9 -18 -2 -28 0 -22 4 14 9 14 43 1 60 -7 9 -4 19 9 33 18
20 18 21 -14 47 -18 15 -32 33 -32 40 0 6 -4 12 -8 12 -5 0 -21 13 -38 29 -23
23 -34 27 -52 20z m-9 -232 c9 -4 17 -11 17 -17 0 -6 -4 -8 -10 -5 -5 3 -19
-3 -31 -14 -17 -16 -19 -23 -10 -40 12 -22 9 -24 -27 -15 -18 5 -21 11 -16 28
4 11 11 27 18 35 6 8 9 26 7 40 -3 24 -2 25 15 10 11 -9 27 -19 37 -22z m372
-17 c-3 -5 -10 -10 -16 -10 -5 0 -9 5 -9 10 0 6 7 10 16 10 8 0 12 -4 9 -10z
m-35 -24 c0 -16 -14 -36 -25 -36 -20 0 -39 27 -23 33 16 7 48 8 48 3z m-185
-59 c0 -6 -9 -13 -20 -13 -11 -1 -25 -2 -32 -3 -8 -1 -8 -8 0 -31 6 -16 15
-30 19 -30 4 0 8 -4 8 -10 0 -21 -31 -9 -42 16 -9 20 -17 24 -35 19 -13 -3
-23 -1 -23 5 0 5 4 10 10 10 5 0 7 6 4 14 -3 7 2 16 11 20 11 4 15 12 11 23
-4 9 -2 19 4 23 15 9 85 -27 85 -43z m-319 30 c4 -4 -2 -7 -13 -7 -12 0 -23
-4 -25 -9 -5 -15 -80 -18 -85 -3 -3 8 6 12 24 13 15 0 37 4 48 8 22 9 41 8 51
-2z m864 -67 c0 -5 -7 -7 -15 -4 -8 4 -15 8 -15 10 0 2 7 4 15 4 8 0 15 -4 15
-10z m-1266 -85 l7 -40 -28 28 c-27 27 -27 29 -9 42 23 18 22 19 30 -30z m446
35 c0 -5 -5 -10 -11 -10 -5 0 -7 5 -4 10 3 6 8 10 11 10 2 0 4 -4 4 -10z m588
-14 c3 -15 1 -16 -17 -6 -12 6 -19 16 -15 21 9 15 28 5 32 -15z m357 -2 c30
-23 26 -44 -7 -44 -15 0 -18 -4 -14 -16 9 -24 -3 -54 -21 -54 -13 0 -15 -8
-10 -45 4 -24 2 -47 -3 -50 -5 -3 -7 -12 -4 -20 4 -8 10 -12 15 -9 5 3 9 -2 9
-12 0 -11 -6 -15 -19 -11 -28 7 -58 -52 -36 -69 19 -14 19 -31 -1 -51 -12 -12
-18 -13 -23 -4 -10 15 -44 2 -37 -15 3 -9 -12 -18 -48 -28 -29 -9 -59 -23 -66
-31 -14 -17 -40 -20 -40 -5 0 5 -18 13 -40 16 -49 8 -55 16 -30 39 11 10 20
24 20 30 0 7 8 16 17 19 12 5 14 9 5 18 -18 18 -15 28 14 38 15 6 22 14 18 22
-5 8 -2 9 10 5 13 -5 19 -1 23 13 3 11 10 20 17 20 6 0 4 4 -4 10 -12 7 -12
12 4 29 11 12 27 21 38 21 11 0 18 7 18 20 0 11 -4 20 -10 20 -5 0 -19 9 -30
20 -23 23 -13 27 16 5 25 -19 34 -19 34 0 0 9 -9 15 -22 15 l-23 0 21 13 c70
40 87 48 99 43 8 -3 15 5 18 19 4 23 -14 39 -39 34 -18 -3 -25 1 -19 11 3 5
32 9 64 8 43 -1 66 -8 86 -24z m-491 0 c18 -7 12 -24 -8 -24 -7 0 -21 7 -32
15 -19 14 -19 14 3 15 12 0 28 -3 37 -6z m-99 -52 c-1 -54 -14 -90 -37 -98
-10 -3 -24 -17 -30 -30 -15 -32 -48 -42 -65 -18 -7 9 -16 14 -20 9 -5 -4 -2
-10 5 -12 25 -9 13 -41 -19 -48 -17 -4 -33 -13 -35 -20 -3 -7 -16 -16 -30 -19
-27 -7 -28 -15 -13 -103 10 -57 13 -63 35 -63 13 0 24 5 24 10 0 6 5 10 10 10
18 0 10 -32 -12 -52 -17 -14 -32 -18 -55 -15 -30 5 -35 2 -68 -51 -19 -31 -35
-62 -35 -69 0 -7 -4 -13 -10 -13 -5 0 -10 -11 -10 -24 0 -24 -39 -61 -71 -68
-8 -2 -16 -6 -19 -9 -3 -4 -19 -10 -36 -13 -26 -6 -32 -4 -37 13 -7 28 -27 34
-62 21 -23 -9 -26 -13 -15 -20 11 -7 6 -10 -18 -10 -25 0 -42 8 -65 33 -50 53
-58 75 -40 111 12 23 13 37 5 60 -13 40 -15 136 -2 136 6 0 11 24 11 53 2 91
10 110 49 120 46 12 57 22 66 60 3 18 11 38 16 45 6 6 8 29 4 51 -3 21 -3 41
0 44 12 12 34 -6 34 -28 0 -13 5 -25 11 -27 7 -2 3 -18 -11 -41 -25 -42 -20
-59 9 -33 24 22 41 14 34 -17 -4 -19 -3 -20 7 -5 16 26 38 11 36 -25 -1 -28 2
-32 24 -29 13 1 28 8 32 15 6 9 12 9 27 0 14 -9 28 -10 46 -3 14 5 25 7 25 4
0 -3 14 3 30 13 33 19 38 31 15 39 -27 11 -16 22 28 27 23 3 55 9 71 13 27 7
29 5 24 -21 l-6 -27 24 26 c23 24 29 44 12 39 -5 -2 -8 4 -8 12 0 8 7 15 15
15 8 0 30 16 49 35 20 19 39 35 43 35 4 0 8 -17 8 -38z m141 -77 c2 -30 -1
-57 -6 -60 -6 -3 -10 -16 -10 -29 0 -28 -18 -46 -47 -46 -28 0 -31 20 -4 27
24 6 36 33 16 33 -8 0 -15 9 -15 20 0 14 7 20 23 20 19 1 20 2 5 10 -13 8 -15
19 -11 48 13 85 41 72 49 -23z m174 81 c0 -11 -19 -15 -25 -6 -3 5 1 10 9 10
9 0 16 -2 16 -4z m-680 -112 c0 -2 -7 -4 -15 -4 -8 0 -15 4 -15 10 0 5 7 7 15
4 8 -4 15 -8 15 -10z m675 -24 c3 -5 1 -10 -4 -10 -6 0 -11 5 -11 10 0 6 2 10
4 10 3 0 8 -4 11 -10z m-370 -59 c-3 -6 -11 -11 -17 -11 -6 0 -6 6 2 15 14 17
26 13 15 -4z m81 -18 c-10 -10 -19 5 -10 18 6 11 8 11 12 0 2 -7 1 -15 -2 -18z
m238 11 c8 -20 -2 -37 -19 -30 -7 2 -18 -1 -24 -7 -16 -16 -26 0 -11 18 7 8 9
15 4 16 -9 0 25 17 37 18 4 1 10 -6 13 -15z m-186 -42 c-10 -2 -18 -12 -18
-23 0 -10 -4 -19 -9 -19 -17 0 -22 19 -12 39 8 14 17 17 33 13 19 -5 20 -7 6
-10z m-188 4 c0 -3 -4 -8 -10 -11 -5 -3 -10 -1 -10 4 0 6 5 11 10 11 6 0 10
-2 10 -4z m75 -6 c3 -5 -1 -10 -9 -10 -9 0 -16 5 -16 10 0 6 4 10 9 10 6 0 13
-4 16 -10z m-51 -44 c11 -1 22 -8 24 -14 2 -7 -10 -9 -36 -6 -28 3 -45 0 -55
-11 -21 -20 -24 -19 -29 10 -7 33 1 38 42 30 19 -4 44 -8 54 -9z m101 -5 c3
-5 -2 -17 -12 -26 -16 -16 -17 -16 -30 1 -7 10 -13 21 -13 26 0 11 48 10 55
-1z m188 -54 c-20 -12 -22 -6 -11 23 10 24 11 24 18 5 5 -13 3 -23 -7 -28z
m-238 -7 c-3 -5 -12 -10 -18 -10 -7 0 -6 4 3 10 19 12 23 12 15 0z m-75 -10
c0 -5 -5 -10 -11 -10 -5 0 -7 5 -4 10 3 6 8 10 11 10 2 0 4 -4 4 -10z m141
-123 c-8 -8 -11 -7 -11 4 0 9 3 19 7 23 4 4 9 2 11 -4 3 -7 -1 -17 -7 -23z
m202 12 c-6 -6 -9 -18 -6 -25 6 -17 -8 -18 -41 -3 -26 12 -27 33 -2 23 8 -3
17 -1 21 5 3 6 14 11 23 11 12 0 13 -3 5 -11z m-246 -25 c-3 -3 -12 -4 -19 -1
-8 3 -5 6 6 6 11 1 17 -2 13 -5z m511 -19 c11 -10 -8 -17 -25 -10 -10 5 -21 9
-25 9 -3 1 -10 5 -15 10 -8 9 56 0 65 -9z m-328 -14 c0 -5 -7 -11 -15 -15 -8
-3 -15 -12 -15 -20 0 -16 -46 -34 -72 -28 -10 2 -18 10 -18 18 0 8 5 12 10 9
6 -3 10 3 10 14 0 24 15 28 23 7 6 -14 47 -11 45 3 -2 15 3 21 17 21 8 0 15
-4 15 -9z m-140 -21 c0 -5 -4 -10 -10 -10 -5 0 -10 5 -10 10 0 6 5 10 10 10 6
0 10 -4 10 -10z m-104 -37 c-11 -11 -17 4 -9 23 7 18 8 18 11 1 2 -10 1 -21
-2 -24z m264 17 c0 -5 -4 -10 -10 -10 -5 0 -10 5 -10 10 0 6 5 10 10 10 6 0
10 -4 10 -10z m-175 -10 c3 -6 -1 -7 -9 -4 -18 7 -21 14 -7 14 6 0 13 -4 16
-10z m28 -69 c9 -47 7 -54 -14 -46 -18 7 -25 99 -7 93 7 -3 16 -24 21 -47z
m32 26 c0 -26 -20 -25 -23 2 -3 16 1 22 10 19 7 -3 13 -12 13 -21z m-165 -12
c-12 -15 -30 -12 -30 6 0 5 10 9 21 9 18 0 19 -2 9 -15z m81 -45 c5 0 9 -7 9
-16 0 -31 -24 -7 -26 27 -1 19 0 24 3 12 2 -13 9 -23 14 -23z m349 0 c0 -5 -5
-10 -11 -10 -5 0 -7 5 -4 10 3 6 8 10 11 10 2 0 4 -4 4 -10z m-389 -47 c-10
-17 -10 -16 -11 3 0 23 13 41 18 25 2 -6 -1 -18 -7 -28z m536 -5 c-3 -7 -5 -2
-5 12 0 14 2 19 5 13 2 -7 2 -19 0 -25z m-429 -14 c-4 -3 -12 5 -18 18 -12 22
-12 22 6 6 10 -10 15 -20 12 -24z m-228 10 c0 -12 -22 -24 -43 -24 -7 0 -6 4
3 10 13 9 13 11 1 19 -10 7 -7 9 12 8 15 -1 27 -7 27 -13z m580 -4 c0 -5 -7
-10 -15 -10 -8 0 -15 5 -15 10 0 6 7 10 15 10 8 0 15 -4 15 -10z m-665 -58
c-12 -13 -24 22 -12 37 10 12 13 11 15 -8 2 -13 1 -26 -3 -29z m-225 8 c0 -5
-5 -10 -11 -10 -5 0 -7 5 -4 10 3 6 8 10 11 10 2 0 4 -4 4 -10z m380 -15 c0
-8 -2 -15 -4 -15 -2 0 -6 7 -10 15 -3 8 -1 15 4 15 6 0 10 -7 10 -15z m103 0
c-3 -9 -8 -14 -10 -11 -3 3 -2 9 2 15 9 16 15 13 8 -4z m537 5 c13 -8 13 -10
-2 -10 -9 0 -20 5 -23 10 -8 13 5 13 25 0z"/>
<path d="M1930 1600 c0 -5 5 -10 11 -10 5 0 7 5 4 10 -3 6 -8 10 -11 10 -2 0
-4 -4 -4 -10z"/>
<path d="M2036 1582 c-8 -14 0 -62 13 -75 10 -9 12 -3 8 30 -4 44 -11 61 -21
45z"/>
<path d="M2756 2262 c-7 -11 25 -73 35 -67 9 6 -8 62 -21 70 -5 3 -11 2 -14
-3z"/>
<path d="M2295 2070 c3 -5 11 -10 16 -10 6 0 7 5 4 10 -3 6 -11 10 -16 10 -6
0 -7 -4 -4 -10z"/>
<path d="M3121 984 c-36 -30 -39 -44 -11 -44 11 0 20 4 20 9 0 5 9 13 20 16
21 7 27 30 11 39 -5 4 -23 -6 -40 -20z"/>
<path d="M938 3876 c-16 -22 -15 -24 19 -62 19 -21 51 -59 72 -84 20 -25 41
-51 48 -58 7 -7 29 -33 49 -58 35 -42 38 -44 55 -28 27 24 24 41 -13 84 -18
20 -69 80 -112 133 -44 54 -85 97 -90 97 -6 0 -19 -11 -28 -24z"/>
<path d="M842 3794 c-31 -21 -28 -32 23 -81 25 -23 45 -46 45 -51 0 -4 -15
-23 -34 -41 -25 -25 -39 -31 -55 -26 -12 3 -21 12 -21 19 0 7 -14 25 -30 41
l-30 29 -28 -28 -27 -28 135 -129 c74 -71 139 -129 143 -129 5 0 17 10 27 23
19 22 19 22 -37 78 -60 62 -61 70 -9 118 l26 25 58 -57 58 -57 23 23 22 24
-113 114 c-155 156 -149 152 -176 133z"/>
<path d="M3805 3644 c-89 -82 -154 -137 -181 -154 -33 -20 -38 -40 -15 -63 22
-22 23 -21 92 34 l26 21 41 -41 c47 -47 74 -51 137 -22 50 23 80 75 71 123 -6
30 -86 150 -104 155 -4 1 -34 -22 -67 -53z m89 -87 c19 -26 19 -30 5 -55 -19
-35 -54 -40 -85 -11 -30 29 -30 37 3 71 32 34 49 33 77 -5z"/>
<path d="M603 3500 c-71 -43 -88 -131 -40 -207 55 -87 203 -152 261 -114 55
36 93 103 82 144 -6 25 -56 96 -68 97 -4 0 -15 -11 -23 -24 -14 -22 -14 -27 1
-59 16 -34 16 -37 0 -62 -15 -23 -21 -25 -54 -19 -20 3 -56 18 -79 32 -61 38
-78 86 -47 130 13 18 22 21 48 17 28 -6 35 -3 49 19 22 33 22 33 -13 51 -39
20 -79 19 -117 -5z"/>
<path d="M3925 3324 c-71 -19 -141 -36 -154 -39 -39 -7 -44 -20 -19 -49 21
-24 26 -26 52 -16 35 13 46 5 71 -49 l18 -40 -28 -23 -27 -23 19 -33 c10 -17
21 -32 24 -32 7 0 253 258 258 271 1 6 -2 23 -9 40 -16 38 -36 37 -205 -7z
m105 -53 c0 -11 -67 -71 -80 -71 -5 0 -14 9 -19 19 -13 23 4 40 52 51 45 11
47 11 47 1z"/>
<path d="M4064 3082 c-96 -40 -148 -97 -146 -159 2 -40 29 -91 54 -99 20 -6
23 -19 8 -29 -12 -7 -12 -16 -2 -32 5 -8 30 -4 90 16 46 15 87 32 93 38 7 7 2
28 -15 66 -23 52 -27 56 -48 48 -19 -7 -22 -14 -20 -45 3 -32 1 -36 -20 -36
-32 0 -68 35 -68 66 0 42 18 63 73 88 111 49 205 -5 153 -87 -17 -26 -10 -77
10 -77 17 0 53 38 65 68 11 28 4 105 -12 130 -33 53 -141 75 -215 44z"/>
<path d="M321 3016 c-7 -8 -11 -27 -9 -43 3 -26 9 -29 117 -60 62 -18 124 -39
137 -48 28 -18 32 -56 9 -75 -17 -14 -38 -11 -170 30 -129 41 -145 38 -145
-22 0 -22 6 -28 33 -33 35 -8 103 -27 188 -55 31 -11 70 -17 90 -14 71 10 121
106 98 184 -10 34 -20 44 -64 65 -61 28 -116 48 -201 69 -75 19 -69 19 -83 2z"/>
<path d="M4205 2759 c-60 -10 -123 -24 -139 -29 -16 -6 -40 -10 -54 -10 -22 0
-24 -3 -18 -32 3 -17 7 -33 9 -34 1 -1 34 4 72 12 102 22 145 27 145 17 0 -4
-8 -13 -19 -18 -37 -20 -157 -103 -170 -119 -18 -21 -6 -66 17 -66 9 0 37 5
62 11 24 5 65 12 90 15 71 7 163 25 183 35 13 7 16 16 11 32 -3 12 -8 24 -10
26 -2 2 -44 -4 -94 -14 -131 -27 -133 -16 -11 66 44 30 82 59 85 65 2 5 2 22
-1 37 -6 32 -8 32 -158 6z"/>
<path d="M291 2677 c-46 -16 -71 -52 -81 -118 -4 -30 -11 -63 -15 -74 -11 -37
14 -53 105 -64 47 -6 95 -13 107 -15 12 -3 53 -8 90 -11 l68 -7 15 73 c19 93
16 118 -18 158 -42 49 -201 83 -271 58z m148 -82 c47 -8 71 -33 71 -74 0 -46
-5 -52 -36 -41 -13 5 -60 13 -104 16 l-80 7 0 32 c0 33 15 59 40 68 14 4 47 2
109 -8z"/>
<path d="M4116 2442 l-88 -3 6 -37 c3 -20 6 -72 6 -114 l0 -77 35 1 34 1 3 80
c3 86 10 94 66 80 20 -5 22 -11 22 -75 l0 -69 33 3 32 3 1 60 c2 90 1 87 37
83 l32 -3 5 -75 c3 -51 9 -75 18 -74 6 1 21 2 32 3 19 1 20 8 20 99 0 53 -4
102 -8 109 -7 12 -56 13 -286 5z"/>
<path d="M4034 2166 c-3 -14 -3 -29 0 -34 3 -5 46 -15 96 -21 49 -7 90 -16 90
-20 0 -4 -42 -9 -92 -10 -51 -1 -97 -6 -101 -10 -14 -14 -4 -66 13 -66 8 0 17
-2 20 -5 3 -3 25 -12 49 -20 59 -20 70 -46 15 -34 -22 4 -57 8 -79 8 -36 1
-40 -2 -43 -26 -3 -25 19 -43 44 -36 10 2 92 -8 169 -22 28 -5 73 -11 102 -14
l51 -5 7 41 c9 52 -1 61 -95 83 -76 18 -136 42 -127 51 3 3 56 8 118 10 63 3
117 8 121 12 3 4 8 25 10 47 l3 39 -70 13 c-38 6 -95 15 -125 18 -30 4 -77 11
-104 16 -66 12 -65 12 -72 -15z"/>
<path d="M421 2149 c-13 -5 -30 -17 -37 -27 -10 -14 -15 -15 -25 -4 -33 32
-130 -3 -149 -54 -10 -24 -8 -41 16 -177 7 -37 8 -38 43 -33 117 18 242 36
283 41 26 3 49 12 52 20 6 17 -12 142 -26 175 -6 14 -20 33 -32 41 -28 21 -94
31 -125 18z m93 -129 c10 -47 1 -60 -45 -60 -23 0 -27 5 -33 41 -14 86 60 104
78 19z m-164 1 c5 -11 10 -34 10 -51 0 -29 -2 -31 -32 -28 -29 3 -33 7 -36 36
-2 19 -1 40 2 48 8 21 44 17 56 -5z"/>
<path d="M3989 1848 c-20 -37 -59 -192 -51 -200 4 -4 18 -9 31 -10 21 -3 26 5
47 66 13 38 26 71 28 74 7 6 76 -18 76 -27 0 -4 -7 -33 -15 -65 -17 -65 -15
-72 20 -78 23 -5 27 -1 44 55 10 34 23 63 28 64 6 2 21 -1 36 -6 27 -11 27
-17 -2 -111 -9 -30 -9 -37 6 -48 31 -23 45 -8 75 78 41 115 41 122 -2 132 -19
5 -44 12 -55 17 -11 5 -45 14 -75 21 -30 7 -81 23 -112 36 -32 13 -60 24 -62
24 -3 0 -11 -10 -17 -22z"/>
<path d="M495 1834 c-27 -7 -89 -24 -138 -37 -104 -28 -112 -34 -95 -73 6 -16
13 -31 14 -33 2 -2 54 13 116 32 119 38 130 40 165 38 26 -1 38 -32 24 -59
-13 -24 -42 -36 -165 -66 -54 -13 -102 -28 -107 -33 -5 -5 -5 -22 0 -38 7 -26
12 -30 42 -29 52 1 207 52 253 82 23 15 49 44 59 64 18 36 18 38 -2 80 -11 24
-26 50 -33 59 -19 23 -76 29 -133 13z"/>
<path d="M643 1610 c-13 -5 -23 -13 -23 -18 0 -14 39 -90 50 -97 19 -12 10
-36 -17 -45 -16 -6 -37 -14 -48 -19 -11 -5 -47 -21 -80 -36 -119 -52 -130 -64
-97 -105 l18 -23 70 33 c176 82 274 132 274 138 0 5 -5 13 -11 19 -6 6 -27 44
-48 84 -38 76 -49 85 -88 69z"/>
<path d="M3899 1599 c-13 -26 -14 -25 99 -81 46 -22 80 -43 77 -47 -4 -3 -61
-6 -127 -6 l-121 0 -10 -28 c-11 -35 0 -44 90 -78 35 -13 63 -27 63 -30 0 -3
19 -14 43 -23 23 -10 61 -26 84 -37 42 -18 43 -18 53 1 5 10 10 22 10 27 0 9
-39 30 -112 62 -30 12 -48 26 -48 37 0 14 11 15 109 9 l109 -7 15 31 c18 35
18 35 -70 79 -34 17 -70 36 -80 41 -58 32 -146 71 -158 71 -8 0 -19 -10 -26
-21z"/>
<path d="M708 1345 c-16 -9 -28 -19 -28 -24 0 -17 47 -51 63 -45 29 11 64 -4
71 -31 12 -49 -54 -117 -132 -135 -27 -7 -38 -4 -59 14 -25 22 -25 23 -9 54
29 55 -13 113 -52 71 -26 -27 -46 -92 -38 -124 4 -14 21 -42 39 -62 30 -32 38
-36 88 -36 41 -1 68 7 114 30 77 40 135 106 135 155 0 40 -27 102 -53 122 -34
25 -105 31 -139 11z"/>
<path d="M3734 1305 c-13 -20 -14 -28 -4 -39 17 -21 158 -116 173 -116 7 0 20
-11 29 -24 16 -22 16 -27 3 -53 -20 -37 -19 -46 5 -68 19 -17 21 -17 40 0 11
10 30 38 42 62 12 24 30 51 40 60 10 9 18 21 18 26 0 5 7 15 16 22 15 10 13
14 -16 35 -25 18 -35 21 -38 11 -6 -18 -40 -51 -51 -51 -5 0 -16 6 -23 14 -8
7 -29 21 -48 31 -18 10 -62 39 -97 66 -34 27 -65 49 -67 49 -3 0 -13 -11 -22
-25z"/>
<path d="M3639 879 c-19 -18 -49 -43 -66 -57 -38 -28 -43 -61 -12 -80 19 -12
26 -7 90 58 38 39 69 73 69 76 0 9 -28 34 -38 34 -6 0 -25 -14 -43 -31z"/>
<path d="M943 824 l-17 -26 60 -55 c32 -30 68 -61 80 -69 24 -17 58 -8 50 13
-3 8 -1 11 4 8 6 -3 10 0 10 7 0 12 -108 118 -121 118 -4 0 -12 7 -19 15 -18
21 -27 19 -47 -11z"/>
<path d="M3197 772 c-25 -15 -27 -22 -27 -79 0 -35 -4 -63 -8 -63 -5 0 -26 13
-48 30 -21 16 -44 30 -51 30 -22 0 -63 -23 -63 -36 0 -13 130 -104 149 -104 9
0 11 -29 7 -109 -2 -60 -2 -112 1 -115 6 -6 54 23 65 39 4 5 8 33 8 62 0 28 4
54 9 58 6 3 25 -7 43 -23 18 -16 40 -31 48 -34 16 -6 70 18 70 31 0 17 -108
104 -120 96 -4 -2 -16 5 -26 16 -15 16 -17 35 -16 107 3 104 -3 117 -41 94z"/>
<path d="M1421 688 c-8 -18 -32 -70 -53 -115 -21 -45 -38 -88 -38 -95 0 -7 -7
-22 -15 -32 -20 -26 -20 -76 0 -77 8 -1 22 -2 31 -3 11 -1 23 17 36 52 22 59
40 72 66 50 9 -8 25 -18 35 -21 21 -8 22 -35 2 -73 -25 -48 -20 -78 16 -91 40
-15 45 -12 54 34 4 21 11 44 17 51 6 7 8 27 5 45 -5 30 -1 36 25 52 42 24 63
78 49 125 -6 19 -20 41 -32 49 -44 27 -158 81 -171 81 -7 0 -19 -15 -27 -32z
m116 -83 c48 -29 53 -45 23 -75 -16 -16 -25 -18 -45 -10 -47 18 -65 30 -65 46
0 16 28 64 38 64 3 0 25 -11 49 -25z"/>
<path d="M2934 640 c-12 -5 -24 -15 -27 -22 -3 -8 12 -66 34 -129 21 -63 39
-122 39 -131 0 -27 -54 -60 -82 -49 -19 7 -28 25 -47 92 -24 88 -49 158 -63
173 -4 6 -18 5 -34 -3 -29 -13 -29 -11 7 -136 35 -118 51 -154 81 -184 26 -25
36 -29 75 -25 108 9 173 110 129 201 -7 15 -26 66 -41 113 -32 98 -41 111 -71
100z"/>
<path d="M1724 602 c-5 -4 -11 -18 -12 -32 -2 -14 -10 -40 -18 -59 -8 -18 -14
-41 -14 -51 0 -10 -7 -31 -15 -46 -8 -16 -15 -38 -15 -49 0 -11 -9 -37 -19
-59 -24 -51 -17 -76 20 -76 31 0 57 35 64 88 2 15 10 46 19 70 8 23 16 44 16
47 0 3 3 10 5 17 24 71 35 105 35 115 0 16 -53 44 -66 35z"/>
<path d="M1832 558 c-1 -7 -6 -35 -11 -63 -5 -27 -12 -74 -15 -103 -3 -29 -13
-69 -21 -89 -8 -19 -15 -53 -15 -75 l0 -40 45 4 c25 2 45 0 45 -4 0 -5 11 -8
25 -8 14 0 25 -4 25 -8 0 -5 16 -8 36 -8 28 1 39 6 45 23 11 29 -13 48 -83 63
l-56 13 5 36 c3 20 9 50 13 66 5 17 12 53 16 80 4 28 10 60 15 72 9 25 -3 38
-42 48 -18 4 -26 2 -27 -7z"/>
<path d="M2563 531 c-56 -9 -104 -18 -107 -21 -2 -3 1 -53 9 -110 7 -58 17
-132 20 -165 8 -67 21 -99 36 -89 6 3 45 8 87 11 42 2 84 9 94 14 10 6 22 7
27 4 15 -9 23 32 11 55 -10 18 -17 20 -48 15 -83 -14 -132 -17 -133 -9 -1 5
-3 18 -4 29 -2 11 -4 26 -6 34 -3 9 7 15 31 17 46 5 103 11 113 13 5 0 7 16 5
34 -3 29 -6 32 -40 35 -21 2 -53 -1 -72 -6 -39 -11 -56 -1 -56 34 0 20 7 24
48 29 26 4 56 8 67 10 11 2 26 4 33 4 16 1 13 73 -3 77 -5 1 -56 -6 -112 -15z"/>
<path d="M2086 502 c-2 -4 -7 -68 -11 -142 -4 -74 -8 -146 -11 -160 -7 -48 2
-57 64 -59 165 -6 157 -7 160 22 4 33 -25 47 -104 48 -40 1 -54 5 -50 14 2 7
7 60 11 117 3 56 8 113 10 124 3 12 -1 26 -8 31 -14 11 -55 14 -61 5z"/>
<path d="M2339 483 c-3 -59 1 -221 7 -274 7 -72 14 -82 48 -73 l28 7 -7 151
c-8 179 -10 197 -27 208 -27 17 -48 9 -49 -19z"/>
</g>
</svg>
